<svg xmlns="http://www.w3.org/2000/svg" width="192.39" height="35" viewBox="0 0 192.39 35"><rect class="svg__rect" x="0" y="0" width="97.71000000000001" height="35" fill="#31C4F3" data-darkreader-inline-fill="" style="--darkreader-inline-fill:#0a85ac;"/><rect class="svg__rect" x="95.71000000000001" y="0" width="96.67999999999999" height="35" fill="#389AD5" data-darkreader-inline-fill="" style="--darkreader-inline-fill:#2272a2;"/><path class="svg__text" d="M17.33 22L14.22 22L14.22 13.47L17.14 13.47Q18.59 13.47 19.34 14.05Q20.10 14.63 20.10 15.78L20.10 15.78Q20.10 16.36 19.78 16.83Q19.47 17.30 18.86 17.56L18.86 17.56Q19.55 17.75 19.93 18.26Q20.31 18.78 20.31 19.51L20.31 19.51Q20.31 20.71 19.53 21.36Q18.76 22 17.33 22L17.33 22ZM15.70 18.15L15.70 20.82L17.35 20.82Q18.04 20.82 18.44 20.47Q18.83 20.13 18.83 19.51L18.83 19.51Q18.83 18.18 17.47 18.15L17.47 18.15L15.70 18.15ZM15.70 14.66L15.70 17.06L17.15 17.06Q17.84 17.06 18.23 16.75Q18.62 16.43 18.62 15.86L18.62 15.86Q18.62 15.23 18.26 14.95Q17.90 14.66 17.14 14.66L17.14 14.66L15.70 14.66ZM24.64 19.16L24.64 19.16L24.64 13.47L26.12 13.47L26.12 19.18Q26.12 20.03 26.55 20.48Q26.98 20.93 27.83 20.93L27.83 20.93Q29.54 20.93 29.54 19.13L29.54 19.13L29.54 13.47L31.02 13.47L31.02 19.17Q31.02 20.53 30.15 21.32Q29.28 22.12 27.83 22.12L27.83 22.12Q26.36 22.12 25.50 21.33Q24.64 20.55 24.64 19.16ZM37.15 22L35.67 22L35.67 13.47L37.15 13.47L37.15 22ZM47.32 22L41.96 22L41.96 13.47L43.44 13.47L43.44 20.82L47.32 20.82L47.32 22ZM53.12 14.66L50.49 14.66L50.49 13.47L57.25 13.47L57.25 14.66L54.59 14.66L54.59 22L53.12 22L53.12 14.66ZM70.10 22L66.99 22L66.99 13.47L69.91 13.47Q71.36 13.47 72.11 14.05Q72.87 14.63 72.87 15.78L72.87 15.78Q72.87 16.36 72.55 16.83Q72.24 17.30 71.63 17.56L71.63 17.56Q72.32 17.75 72.70 18.26Q73.07 18.78 73.07 19.51L73.07 19.51Q73.07 20.71 72.30 21.36Q71.53 22 70.10 22L70.10 22ZM68.47 18.15L68.47 20.82L70.12 20.82Q70.81 20.82 71.21 20.47Q71.60 20.13 71.60 19.51L71.60 19.51Q71.60 18.18 70.24 18.15L70.24 18.15L68.47 18.15ZM68.47 14.66L68.47 17.06L69.92 17.06Q70.61 17.06 71.00 16.75Q71.39 16.43 71.39 15.86L71.39 15.86Q71.39 15.23 71.03 14.95Q70.67 14.66 69.91 14.66L69.91 14.66L68.47 14.66ZM79.58 18.86L76.72 13.47L78.37 13.47L80.33 17.51L82.29 13.47L83.93 13.47L81.07 18.86L81.07 22L79.58 22L79.58 18.86Z" fill="#FFFFFF" data-darkreader-inline-fill="" style="--darkreader-inline-fill:#181a1b;"/><path class="svg__text" d="M115.67 20.91L109.76 18.72L109.76 16.88L115.67 14.69L115.67 16.45L111.84 17.80L115.67 19.16L115.67 20.91ZM125.23 22L120.69 22L120.69 13.60L124.99 13.60Q126.60 13.60 127.44 14.19Q128.28 14.79 128.28 15.79L128.28 15.79Q128.28 16.39 127.98 16.87Q127.69 17.34 127.15 17.62L127.15 17.62Q127.87 17.87 128.28 18.41Q128.68 18.94 128.68 19.70L128.68 19.70Q128.68 20.80 127.80 21.40Q126.91 22 125.23 22L125.23 22ZM123.05 18.58L123.05 20.28L125.04 20.28Q126.29 20.28 126.29 19.43L126.29 19.43Q126.29 18.58 125.04 18.58L125.04 18.58L123.05 18.58ZM123.05 15.31L123.05 16.94L124.68 16.94Q125.88 16.94 125.88 16.12L125.88 16.12Q125.88 15.31 124.68 15.31L124.68 15.31L123.05 15.31ZM132.97 17.80L132.97 17.80Q132.97 16.54 133.57 15.54Q134.17 14.55 135.22 13.99Q136.27 13.43 137.59 13.43L137.59 13.43Q138.74 13.43 139.67 13.84Q140.59 14.25 141.20 15.02L141.20 15.02L139.69 16.39Q138.88 15.40 137.71 15.40L137.71 15.40Q137.03 15.40 136.49 15.70Q135.96 16 135.66 16.54Q135.37 17.09 135.37 17.80L135.37 17.80Q135.37 18.51 135.66 19.05Q135.96 19.60 136.49 19.90Q137.03 20.20 137.71 20.20L137.71 20.20Q138.88 20.20 139.69 19.22L139.69 19.22L141.20 20.58Q140.60 21.35 139.67 21.76Q138.74 22.17 137.59 22.17L137.59 22.17Q136.27 22.17 135.22 21.61Q134.17 21.05 133.57 20.05Q132.97 19.06 132.97 17.80ZM146.48 23.20L144.46 23.20L148.42 11.90L150.44 11.90L146.48 23.20ZM155.62 22L153.19 22L156.90 13.60L159.25 13.60L162.96 22L160.49 22L159.83 20.37L156.28 20.37L155.62 22ZM158.06 15.93L156.97 18.61L159.13 18.61L158.06 15.93ZM169.49 22L167.11 22L167.11 13.60L169.49 13.60L169.49 22ZM180.44 18.72L174.53 20.91L174.53 19.16L178.35 17.80L174.53 16.45L174.53 14.69L180.44 16.88L180.44 18.72Z" fill="#FFFFFF" x="108.71000000000001" data-darkreader-inline-fill="" style="--darkreader-inline-fill:#181a1b;"/></svg>